<?xml version="1.0" encoding="utf-8"?>
<!-- Generator: Adobe Illustrator 18.1.1, SVG Export Plug-In . SVG Version: 6.00 Build 0)  -->
<svg version="1.1" id="Layer_1" xmlns="http://www.w3.org/2000/svg" xmlns:xlink="http://www.w3.org/1999/xlink" x="0px" y="0px"
	 viewBox="47.6 0 500 500" enable-background="new 47.6 0 500 500" xml:space="preserve">
<circle opacity="5.000000e-02" enable-background="new    " cx="298.1" cy="250" r="192.5"/>
<g>
	<linearGradient id="SVGID_1_" gradientUnits="userSpaceOnUse" x1="113.7728" y1="313.2609" x2="454.0598" y2="313.2609">
		<stop  offset="0" style="stop-color:#BBBCBD"/>
		<stop  offset="1" style="stop-color:#9E9E9F"/>
	</linearGradient>
	<path fill="url(#SVGID_1_)" d="M453.7,348.3c-4.9,0-11.6-2.3-18.4-12.8c-4.1-6.8-7.1-14.6-9.4-22.1c-5.3-16.1-8.6-33.4-12-49.9
		c-1.5-6.8-2.6-13.9-4.1-20.6l-0.4-1.9c-3-13.1-5.6-25.5-10.1-36.4c-4.1-10.1-7.9-12.4-9-12.4c-1.1,0-4.5,1.9-9,11.3
		c-4.9,10.5-8.3,23.3-11.3,35.3c-1.5,6-3,12-4.1,18c-3.4,14.6-6.8,29.7-12,43.5c-7.9,21-18.4,25.9-25.5,26.3
		c-7.1,0.4-17.3-3.4-26.7-22.1c-5.6-11.3-9.4-24-12.8-36.4l-2.3-7.5c-3.4-12-6.8-23.6-11.6-33.4c-3.4-6.4-6.8-10.5-10.1-10.9
		c-3.4-0.4-7.1,3.4-9.4,5.6c-4.9,5.6-8.6,14.3-12,23.3c-1.5,3.8-2.6,7.1-4.1,10.9c-2.6,7.1-5.3,14.3-8.3,21
		c-9.4,21.4-21,26.7-28.9,27.4c-7.5,0.8-18.8-2.3-30-19.5c-5.6-8.6-10.5-18-14.3-26.3c-8.6-17.3-16.9-18.8-23.6-18.8
		c-6.7,0.2-13.5,0.3-20.3,0.3c-0.2,3.3-0.3,6.5-0.3,9.8c0,101.8,82.5,184.4,184.4,184.4c65.6,0,123.3-34.3,155.9-86
		C454,348.3,453.9,348.3,453.7,348.3z"/>
</g>
<g>
	<path fill="#546D7A" d="M133.6,234.6c16.1-0.8,28.9,8.6,37.9,27.4c3.8,7.9,8.6,16.9,13.5,24.8c5.6,8.6,11.6,12.8,15.8,12.4
		c5.3-0.4,11.3-7.1,16.1-18c2.6-6.4,5.3-13.1,7.9-19.9c1.5-3.8,2.6-7.5,4.1-11.3c4.1-10.5,8.3-20.6,15-28.2
		c9-10.1,17.3-11.3,22.9-10.5c6,0.8,14.6,4.9,21.8,19.5c5.6,11.3,9,24,12.4,36l1.9,6.4c3.8,13.1,7.1,24.8,12,34.5
		c4.9,10.1,9.4,13.1,12,13.5c2.6,0,7.5-4.5,11.6-16.1c4.9-12.8,8.3-27.4,11.3-41.3c1.5-6,3-12.4,4.5-18.4
		c3.4-12.8,6.8-26.3,12.4-37.9c7.9-17.3,16.5-20.3,23.3-20.3c9,0.4,16.9,7.9,22.5,22.1c4.9,12.4,9.4,27.8,12.4,40.9
		c1.5,6.8,3,13.9,4.5,21c3.4,16.1,6.8,33,11.3,48c1.9,6.4,4.5,13.1,7.5,18c3,4.5,4.9,5.6,5.6,5.6c0.8,0,3-1.5,5.6-6.8
		c5.3-10.1,7.9-22.9,10.5-34.2c3-13.1,5.3-27,7.5-40.5c1.4-8.6,2.9-17.3,4.5-26c-7.3-95.1-86.8-170-183.8-170
		c-96.7,0-176,74.5-183.7,169.2C120.8,234.8,127.2,234.8,133.6,234.6z"/>
</g>
<polygon id="polygon46" opacity="0.3" enable-background="new    " points="203.4,298.6 184.6,294.8 150.8,231 218.4,272.3 "/>
<polygon id="polygon48" opacity="0.3" enable-background="new    " points="334.8,321.1 312.2,309.9 270.9,204.7 357.3,261.1 "/>
<polygon id="polygon50" opacity="0.3" enable-background="new    " points="466.1,343.6 443.6,336.1 398.6,182.2 484.9,238.5 "/>
<path id="path52" fill="#FFFFFF" d="M453.7,350.8c-4.9,0-11.6-2.3-18.4-12.8c-4.1-6.8-7.1-14.6-9.4-22.1c-5.3-16.1-8.6-33.4-12-49.9
	c-1.5-6.8-2.6-13.9-4.1-20.6l-0.4-1.9c-3-13.1-5.6-25.5-10.1-36.4c-4.1-10.1-7.9-12.4-9-12.4l0,0c-1.1,0-4.5,1.9-9,11.3
	c-4.9,10.5-8.3,23.3-11.3,35.3c-1.5,6-3,12-4.1,18c-3.4,14.6-6.8,29.7-12,43.5c-7.9,21-18.4,25.9-25.5,26.3
	c-7.1,0.4-17.3-3.4-26.7-22.1c-5.6-11.3-9.4-24-12.8-36.4l-2.3-7.5c-3.4-12-6.8-23.6-11.6-33.4c-3.4-6.4-6.8-10.5-10.1-10.9
	c-3.4-0.4-7.1,3.4-9.4,5.6c-4.9,5.6-8.6,14.3-12,23.3c-1.5,3.8-2.6,7.1-4.1,10.9c-2.6,7.1-5.3,14.3-8.3,21
	c-9.4,21.4-21,26.7-28.9,27.4c-7.5,0.8-18.8-2.3-30-19.5c-5.6-8.6-10.5-18-14.3-26.3c-8.6-17.3-16.9-18.8-23.6-18.8
	c-14.6,0.4-29.7,0.4-43.9,0c-6,0-12,0-18.4-0.4v-15.8c6,0,12.4,0,18.4,0.4c14.3,0.4,28.9,0.4,43.2,0c16.1-0.8,28.9,8.6,37.9,27.4
	c3.8,7.9,8.6,16.9,13.5,24.8c5.6,8.6,11.6,12.8,15.8,12.4c5.3-0.4,11.3-7.1,16.1-18c2.6-6.4,5.3-13.1,7.9-19.9
	c1.5-3.8,2.6-7.5,4.1-11.3c4.1-10.5,8.3-20.6,15-28.2c9-10.1,17.3-11.3,22.9-10.5c6,0.8,14.6,4.9,21.8,19.5c5.6,11.3,9,24,12.4,36
	l1.9,6.4c3.8,13.1,7.1,24.8,12,34.5c4.9,10.1,9.4,13.1,12,13.5c2.6,0,7.5-4.5,11.6-16.1c4.9-12.8,8.3-27.4,11.3-41.3
	c1.5-6,3-12.4,4.5-18.4c3.4-12.8,6.8-26.3,12.4-37.9c7.9-17.3,16.5-20.3,23.3-20.3c9,0.4,16.9,7.9,22.5,22.1
	c4.9,12.4,9.4,27.8,12.4,40.9l0,0c1.5,6.8,3,13.9,4.5,21c3.4,16.1,6.8,33,11.3,48c1.9,6.4,4.5,13.1,7.5,18c3,4.5,4.9,5.6,5.6,5.6
	l0,0c0.8,0,3-1.5,5.6-6.8c5.3-10.1,7.9-22.9,10.5-34.2c3-13.1,5.3-27,7.5-40.5c3-18,6-36.4,10.9-54.1c2.6-10.1,5.3-20.6,10.1-29.7
	c2.6-4.5,5.6-7.9,8.6-10.5l4.9-1.9l10.5-3.4v16.1l-5.6,1.9c-2.3,0.8-4.1,3.4-5.3,5.6c-4.1,7.1-6.4,16.1-8.6,25.9
	c-4.5,17.3-7.5,35.3-10.5,52.9c-2.3,13.5-4.9,27.8-7.9,41.3c-2.6,12.4-5.6,26.3-11.6,37.9C466.5,348.1,459,350.8,453.7,350.8
	C453.7,350.4,453.7,350.8,453.7,350.8L453.7,350.8z"/>
</svg>
