<?xml version="1.0" encoding="utf-8"?>
<!-- Generator: Adobe Illustrator 16.0.0, SVG Export Plug-In . SVG Version: 6.00 Build 0)  -->
<!DOCTYPE svg PUBLIC "-//W3C//DTD SVG 1.1//EN" "http://www.w3.org/Graphics/SVG/1.1/DTD/svg11.dtd">
<svg version="1.1" id="Layer_1" xmlns="http://www.w3.org/2000/svg" xmlns:xlink="http://www.w3.org/1999/xlink" x="0px" y="0px"
	 width="500px" height="500px" viewBox="47.64 170.945 500 500" enable-background="new 47.64 170.945 500 500"
	 xml:space="preserve">
<circle opacity="0.05" enable-background="new    " cx="296.957" cy="420.945" r="231.183"/>
<g>
	
		<linearGradient id="SVGID_1_" gradientUnits="userSpaceOnUse" x1="85.1096" y1="550.584" x2="415.4075" y2="550.584" gradientTransform="matrix(1.1906 0 0 -1.1906 -17.4573 1149.5963)">
		<stop  offset="0" style="stop-color:#BBBCBD"/>
		<stop  offset="1" style="stop-color:#9E9E9F"/>
	</linearGradient>
	<path fill="url(#SVGID_1_)" d="M476.764,534.538c-5.662,0-13.404-2.658-21.263-14.791c-4.737-7.858-8.204-16.872-10.862-25.539
		c-6.124-18.604-9.938-38.596-13.866-57.663c-1.733-7.857-3.005-16.062-4.738-23.804l-0.462-2.195
		c-3.467-15.138-6.472-29.467-11.672-42.063c-4.737-11.671-9.129-14.329-10.399-14.329c-1.271,0-5.2,2.195-10.4,13.058
		c-5.662,12.134-9.592,26.925-13.058,40.792c-1.733,6.933-3.468,13.867-4.738,20.8c-3.929,16.871-7.858,34.32-13.866,50.268
		c-9.129,24.267-21.263,29.93-29.468,30.391c-8.204,0.463-19.991-3.929-30.854-25.537c-6.471-13.059-10.862-27.734-14.792-42.062
		l-2.658-8.667c-3.929-13.867-7.858-27.271-13.405-38.596c-3.929-7.396-7.857-12.134-11.671-12.596
		c-3.929-0.461-8.205,3.929-10.862,6.471c-5.663,6.472-9.938,16.525-13.866,26.925c-1.734,4.392-3.005,8.205-4.739,12.596
		c-3.004,8.204-6.124,16.524-9.591,24.267c-10.862,24.729-24.267,30.854-33.396,31.663c-8.666,0.925-21.724-2.657-34.667-22.533
		c-6.471-9.938-12.134-20.801-16.524-30.393c-9.938-19.991-19.53-21.724-27.272-21.724c-7.742,0.23-15.6,0.346-23.458,0.346
		c-0.231,3.813-0.347,7.512-0.347,11.325c0,117.638,95.334,213.087,213.087,213.087c75.806,0,142.481-39.636,180.153-99.379
		C477.111,534.538,476.995,534.538,476.764,534.538z"/>
</g>
<g>
	<path fill="#546D7A" d="M106.866,403.149c18.604-0.924,33.396,9.938,43.796,31.662c4.392,9.13,9.938,19.53,15.6,28.659
		c6.471,9.937,13.404,14.791,18.257,14.328c6.125-0.462,13.059-8.204,18.606-20.8c3.003-7.396,6.124-15.138,9.129-22.996
		c1.732-4.392,3.003-8.667,4.737-13.058c4.738-12.134,9.591-23.805,17.333-32.587c10.4-11.671,19.991-13.058,26.462-12.134
		c6.934,0.925,16.871,5.663,25.191,22.534c6.471,13.059,10.4,27.734,14.329,41.601l2.196,7.396
		c4.392,15.137,8.205,28.657,13.866,39.867c5.662,11.671,10.862,15.137,13.867,15.6c3.005,0,8.667-5.2,13.404-18.604
		c5.663-14.792,9.592-31.662,13.059-47.725c1.733-6.934,3.467-14.329,5.199-21.263c3.93-14.792,7.858-30.392,14.33-43.796
		c9.129-19.992,19.066-23.459,26.924-23.459c10.401,0.463,19.53,9.13,26.001,25.538c5.663,14.329,10.862,32.125,14.329,47.264
		c1.733,7.857,3.467,16.062,5.2,24.266c3.929,18.605,7.857,38.135,13.058,55.469c2.196,7.395,5.201,15.137,8.667,20.8
		c3.467,5.199,5.662,6.471,6.471,6.471c0.925,0,3.468-1.732,6.472-7.857c6.125-11.671,9.129-26.463,12.134-39.521
		c3.467-15.139,6.125-31.201,8.667-46.801c1.617-9.938,3.351-19.991,5.2-30.045c-8.437-109.894-100.304-196.446-212.395-196.446
		c-111.744,0-203.38,86.09-212.278,195.522C92.075,403.38,99.47,403.38,106.866,403.149z"/>
</g>
<polygon id="polygon46" opacity="0.3" enable-background="new    " points="187.525,477.106 165.801,472.715 126.742,398.989 
	204.858,446.714 "/>
<polygon id="polygon48" opacity="0.3" enable-background="new    " points="339.366,503.106 313.251,490.164 265.526,368.598 
	365.367,433.771 "/>
<polygon id="polygon50" opacity="0.3" enable-background="new    " points="491.094,529.106 465.093,520.439 413.092,342.598 
	512.818,407.656 "/>
<path opacity="0.05" enable-background="new    " d="M521.485,427.994c-2.657,15.601-5.662,32.124-9.129,47.726
	c-3.004,14.328-6.472,30.391-13.404,43.796c-7.396,14.791-16.062,17.91-22.188,17.91c-5.662,0-13.404-2.657-21.263-14.79
	c-4.737-7.858-8.204-16.872-10.862-25.538c-6.124-18.604-9.938-38.596-13.866-57.663c-1.733-7.858-3.005-16.062-4.738-23.805
	l-0.462-2.196c-3.467-15.138-6.472-29.466-11.672-42.062c-4.737-11.671-9.129-14.329-10.399-14.329c-1.271,0-5.2,2.195-10.4,13.058
	c-5.662,12.133-9.592,26.925-13.058,40.792c-1.733,6.934-3.468,13.867-4.738,20.801c-3.929,16.871-7.858,34.32-13.866,50.267
	c-9.129,24.268-21.263,29.93-29.468,30.392c-8.204,0.463-19.991-3.929-30.854-25.538c-6.471-13.058-10.862-27.733-14.792-42.062
	l-2.658-8.667c-3.929-13.866-7.858-27.271-13.405-38.595c-3.929-7.396-7.857-12.134-11.671-12.596
	c-3.929-0.463-8.205,3.929-10.862,6.471c-5.663,6.471-9.938,16.525-13.866,26.925c-1.734,4.391-3.005,8.205-4.739,12.596
	c-3.004,8.205-6.124,16.525-9.591,24.267c-10.862,24.73-24.267,30.854-33.396,31.663c-8.666,0.925-21.724-2.658-34.667-22.534
	c-6.471-9.937-12.134-20.8-16.524-30.391c-9.938-19.992-19.53-21.725-27.272-21.725c-11.382,0-30.485,0-41.718,0
	c-0.109,2.916-0.183,5.84-0.183,8.783c0,127.679,103.504,231.183,231.183,231.183S528.14,548.624,528.14,420.945
	c0-8.031-0.411-15.966-1.21-23.786C524.968,407.447,523.226,417.779,521.485,427.994z"/>
<path fill="#FFFFFF" d="M134.947,433.888c4.39,9.591,10.053,20.454,16.524,30.391c12.943,19.876,26.001,23.459,34.667,22.534
	c9.129-0.809,22.534-6.933,33.396-31.663c3.467-7.741,6.587-16.062,9.591-24.267c1.734-4.391,3.005-8.205,4.739-12.596
	c3.929-10.399,8.204-20.454,13.866-26.925c2.658-2.542,6.934-6.934,10.862-6.471c3.813,0.462,7.742,5.2,11.671,12.596
	c5.547,11.324,9.476,24.729,13.405,38.595l2.658,8.667c3.929,14.329,8.32,29.005,14.792,42.062
	c10.862,21.609,22.649,26.001,30.854,25.538c8.205-0.462,20.339-6.124,29.468-30.392c6.008-15.946,9.938-33.396,13.866-50.267
	c1.271-6.934,3.005-13.867,4.738-20.801c3.466-13.867,7.396-28.658,13.058-40.792c5.2-10.862,9.129-13.058,10.4-13.058
	c1.271,0,5.662,2.658,10.399,14.329c5.2,12.596,8.205,26.925,11.672,42.062l0.462,2.196c1.733,7.742,3.005,15.946,4.738,23.805
	c3.929,19.067,7.742,39.059,13.866,57.663c2.658,8.666,6.125,17.68,10.862,25.538c7.858,12.133,15.601,14.79,21.263,14.79
	c0-0.173,0-0.216,0-0.202c0-0.014,0,0.029,0,0.202c6.125,0,14.791-3.119,22.188-17.91c6.933-13.405,10.4-29.468,13.404-43.796
	c3.467-15.602,6.472-32.125,9.129-47.726c1.741-10.215,3.483-20.547,5.445-30.835c-1.479-14.458-4.303-28.514-8.319-42.058
	c-0.64,2.388-1.255,4.774-1.864,7.141c-5.662,20.454-9.129,41.715-12.595,62.517c-2.542,15.6-5.2,31.662-8.667,46.801
	c-3.005,13.058-6.009,27.849-12.134,39.52c-3.004,6.125-5.547,7.858-6.472,7.858c-0.809,0-3.004-1.271-6.471-6.472
	c-3.466-5.662-6.471-13.404-8.666-20.8c-5.201-17.333-9.13-36.863-13.059-55.468c-1.733-8.205-3.467-16.408-5.2-24.266
	c-3.467-15.138-8.666-32.935-14.329-47.263c-6.471-16.41-15.6-25.076-26.001-25.538c-7.857,0-17.795,3.467-26.924,23.458
	c-6.472,13.405-10.4,29.004-14.33,43.796c-1.732,6.934-3.466,14.329-5.199,21.262c-3.467,16.062-7.396,32.934-13.059,47.725
	c-4.737,13.405-10.399,18.605-13.404,18.605c-3.005-0.463-8.205-3.93-13.867-15.601c-5.661-11.209-9.475-24.729-13.866-39.867
	l-2.196-7.396c-3.929-13.866-7.857-28.542-14.329-41.6c-8.319-16.872-18.258-21.609-25.191-22.535
	c-6.471-0.924-16.062,0.463-26.462,12.134c-7.742,8.783-12.595,20.454-17.333,32.587c-1.734,4.391-3.005,8.667-4.737,13.058
	c-3.005,7.857-6.125,15.6-9.129,22.996c-5.547,12.595-12.48,20.337-18.605,20.8c-4.854,0.463-11.788-4.392-18.258-14.329
	c-5.663-9.129-11.208-19.529-15.6-28.658c-10.4-21.725-25.191-32.587-43.796-31.663c-10.697,0-28.316,0-39.509,0
	c-0.701,6.019-1.17,12.107-1.4,18.258c11.232,0,30.335,0,41.718,0C115.417,412.163,125.009,413.896,134.947,433.888z"/>
</svg>
