<?xml version="1.0" encoding="utf-8"?>
<!-- Generator: Adobe Illustrator 18.1.1, SVG Export Plug-In . SVG Version: 6.00 Build 0)  -->
<svg version="1.1" id="Layer_1" xmlns="http://www.w3.org/2000/svg" xmlns:xlink="http://www.w3.org/1999/xlink" x="0px" y="0px"
	 viewBox="0 0 115 115" enable-background="new 0 0 115 115" xml:space="preserve">
<g>
	<path fill="#553848" d="M98.5,18H56.1c-1.4-3-4-4-7.1-4H16c-4.6,0-8,3.7-8,8.3v70.4c0,4.6,3.4,8.3,8,8.3h82.6
		c4.6,0,8.5-3.7,8.5-8.3V26.4C107,21.9,103.1,18,98.5,18z"/>
	<path fill="#81596E" d="M98.7,20H57.4c-1.4-3-3.9-4-6.9-4H18.3c-4.4,0-8.3,3.2-8.3,7.7v69.2c0,4.5,3.8,8.1,8.3,8.1h80.5
		c4.4,0,8.3-3.7,8.3-8.1V27.8C107,23.3,103.2,20,98.7,20z"/>
	<path fill="#9A7989" d="M91.6,82.5c-1.1,0-2.6-0.5-4-2.8c-0.9-1.5-1.6-3.2-2.1-4.8c-1.1-3.5-1.9-7.3-2.6-11c-0.3-1.5-0.6-3-0.9-4.5
		l-0.1-0.4c-0.6-2.9-1.2-5.6-2.2-8c-0.9-2.2-1.7-2.7-2-2.7c0,0,0,0,0,0c-0.2,0-1,0.4-2,2.5c-1.1,2.3-1.8,5.1-2.5,7.7
		c-0.3,1.3-0.6,2.6-0.9,4c-0.7,3.2-1.5,6.5-2.7,9.6c-1.8,4.6-4,5.7-5.6,5.8c-1.6,0.1-3.8-0.7-5.8-4.8c-1.2-2.5-2-5.3-2.8-8l-0.5-1.6
		c-0.8-2.7-1.5-5.2-2.5-7.3c-0.7-1.4-1.5-2.3-2.2-2.4c-0.8-0.1-1.6,0.7-2,1.2c-1.1,1.2-1.9,3.1-2.7,5.2c-0.3,0.8-0.6,1.6-0.9,2.4
		c-0.6,1.6-1.1,3.1-1.8,4.6c-2.1,4.7-4.6,5.9-6.4,6c-1.6,0.1-4.2-0.5-6.6-4.3c-1.2-1.9-2.3-4-3.2-5.8c-1.9-3.8-3.7-4.2-5.2-4.1
		c-3.2,0.1-6.5,0.1-9.7,0c-1.3,0-2.4,0-3.7,0v-3.5c1.3,0,2.4,0,3.8,0c3.1,0,6.4,0.1,9.5,0c3.5-0.1,6.3,1.9,8.4,6
		c0.8,1.7,1.9,3.7,3,5.4c1.2,1.9,2.6,2.8,3.5,2.7c1.2-0.1,2.5-1.6,3.6-4c0.6-1.4,1.2-2.9,1.7-4.4c0.3-0.8,0.6-1.7,0.9-2.5
		c0.9-2.3,1.8-4.5,3.3-6.2c2-2.2,3.8-2.5,5-2.3c1.3,0.2,3.2,1.1,4.8,4.3c1.2,2.5,2,5.2,2.8,7.9l0.4,1.4c0.8,2.9,1.6,5.4,2.7,7.6
		c1.1,2.2,2.1,2.9,2.7,3c0.6,0,1.6-1,2.6-3.6c1.1-2.8,1.8-6,2.5-9.1c0.3-1.4,0.6-2.7,1-4c0.7-2.8,1.5-5.8,2.7-8.4
		c1.8-3.8,3.7-4.5,5.1-4.5c2,0.1,3.7,1.7,5,4.9c1.1,2.7,1.8,5.7,2.4,8.6l0.1,0.4c0.3,1.5,0.6,3.1,0.9,4.6c0.7,3.6,1.4,7.2,2.5,10.6
		c0.4,1.4,1,2.9,1.7,4c0.6,1,1.1,1.2,1.2,1.2h0c0.1,0,0.6-0.3,1.3-1.5c1.1-2.2,1.7-5,2.3-7.5c0.6-2.9,1.2-6,1.7-8.9
		c0.7-3.9,1.4-8,2.4-11.9c0.6-2.3,1.2-4.6,2.3-6.5c0.6-1,1.2-1.8,1.9-2.3l1.1-0.4l2.6-0.7v3.6l-1.4,0.4c-0.5,0.1-0.9,0.8-1.2,1.3
		c-0.9,1.6-1.4,3.6-1.9,5.7c-1,3.8-1.6,7.8-2.3,11.6c-0.5,3-1,6.1-1.7,9.1c-0.6,2.7-1.3,5.7-2.6,8.4c-1.4,2.7-3,3.3-4.1,3.4
		C91.7,82.5,91.7,82.5,91.6,82.5z"/>
</g>
</svg>
