<?xml version="1.0" encoding="utf-8"?>
<!-- Generator: Adobe Illustrator 18.1.1, SVG Export Plug-In . SVG Version: 6.00 Build 0)  -->
<svg version="1.1" id="Layer_1" xmlns="http://www.w3.org/2000/svg" xmlns:xlink="http://www.w3.org/1999/xlink" x="0px" y="0px"
	 viewBox="0 0 128 128" enable-background="new 0 0 128 128" xml:space="preserve">
<filter  height="200" width="200" x="-20" y="-20" id="blurFilter5">
	<feGaussianBlur  in="SourceGraphic" stdDeviation="2"></feGaussianBlur>
</filter>
<g opacity="0.7" filter="url(#blurFilter5)">
	<ellipse fill="#231F20" cx="64.1" cy="114.4" rx="44" ry="6.4"/>
</g>
<g opacity="5.000000e-02">
	<path d="M106.1,13c6.5,0,11.9,5.3,11.9,11.9v80.2c0,6.5-5.3,11.9-11.9,11.9H21.9c-6.5,0-11.9-5.3-11.9-11.9V24.9
		C10,18.3,15.3,13,21.9,13H106.1 M106.1,11H21.9C14.2,11,8,17.2,8,24.9v80.2c0,7.7,6.2,13.9,13.9,13.9h84.2
		c7.7,0,13.9-6.2,13.9-13.9V24.9C120,17.2,113.8,11,106.1,11L106.1,11z"/>
</g>
<path fill="#81586C" d="M106.1,117H21.9c-6.5,0-11.9-5.3-11.9-11.9V24.9C10,18.3,15.3,13,21.9,13h84.2c6.5,0,11.9,5.3,11.9,11.9
	v80.2C118,111.7,112.7,117,106.1,117z"/>
<path fill="#546D7A" d="M20.4,57.9c4.3-0.2,7.7,2.3,10.1,7.3c1,2.1,2.3,4.5,3.6,6.6c1.5,2.3,3.1,3.4,4.2,3.3c1.4-0.1,3-1.9,4.3-4.8
	c0.7-1.7,1.4-3.5,2.1-5.3c0.4-1,0.7-2,1.1-3c1.1-2.8,2.2-5.5,4-7.5c2.4-2.7,4.6-3,6.1-2.8c1.6,0.2,3.9,1.3,5.8,5.2
	c1.5,3,2.4,6.4,3.3,9.6l0.5,1.7c1,3.5,1.9,6.6,3.2,9.2c1.3,2.7,2.5,3.5,3.2,3.6c0.7,0,2-1.2,3.1-4.3c1.3-3.4,2.2-7.3,3-11
	c0.4-1.6,0.8-3.3,1.2-4.9c0.9-3.4,1.8-7,3.3-10.1c2.1-4.6,4.4-5.4,6.2-5.4c2.4,0.1,4.5,2.1,6,5.9c1.3,3.3,2.1,6.9,2.9,10.4L98,62
	c0.4,1.8,0.8,3.7,1.2,5.6c0.9,4.3,1.8,8.8,3,12.8c0.5,1.7,1.2,3.5,2,4.8c0.8,1.2,1.3,1.5,1.5,1.5l0,0c0.2,0,0.8-0.4,1.5-1.8
	c1.4-2.7,2.1-6.1,2.8-9.1c0.8-3.5,1.4-7.2,2-10.8c0.8-4.8,1.6-9.7,2.9-14.4c0.7-2.7,1.4-5.5,2.7-7.9c0.1-0.3,0.3-0.5,0.4-0.7V22
	c0-6.5-5.3-11.9-11.9-11.9H21.9C15.3,10,10,15.3,10,21.9V58C13.4,58,17,58.1,20.4,57.9z"/>
<linearGradient id="SVGID_1_" gradientUnits="userSpaceOnUse" x1="10" y1="47.85" x2="118" y2="47.85" gradientTransform="matrix(1 0 0 -1 0 128)">
	<stop  offset="0" style="stop-color:#BBBCBD"/>
	<stop  offset="1" style="stop-color:#9E9E9F"/>
</linearGradient>
<path fill="url(#SVGID_1_)" d="M116,64.4c-0.6,3.6-1.3,7.3-2.1,10.9c-0.7,3.3-1.5,6.8-3.1,10c-1.7,3.3-3.6,4-5,4.1
	c-0.1,0-0.1,0-0.2,0c-1.3,0-3.1-0.6-4.9-3.4c-1.1-1.7-1.9-3.9-2.5-5.8c-1.4-4.3-2.3-8.8-3.2-13.1c-0.4-1.8-0.7-3.7-1.1-5.4l-0.1-0.5
	c-0.8-3.5-1.5-6.7-2.7-9.6C90,49,89,48.3,88.7,48.3l0,0c-0.3,0-1.2,0.5-2.4,3c-1.3,2.7-2.2,6.1-3,9.3c-0.4,1.5-0.8,3.2-1.1,4.8
	c-0.9,3.9-1.8,7.7-3.2,11.4c-2.1,5.5-4.9,6.8-6.8,6.9s-4.6-0.8-7.1-5.8c-1.5-3-2.5-6.3-3.4-9.6l-0.6-1.9c-0.9-3.2-1.8-6.2-3.1-8.8
	c-0.9-1.7-1.8-2.7-2.7-2.8s-1.9,0.8-2.5,1.4c-1.3,1.5-2.3,3.8-3.2,6.1c-0.2,0.9-0.6,1.9-1,2.8c-0.7,1.8-1.4,3.8-2.2,5.5
	c-2.5,5.6-5.6,7-7.7,7.2c-2,0.2-5-0.6-8-5.1c-1.5-2.2-2.8-4.8-3.8-6.9c-2.3-4.5-4.5-5-6.3-4.9C17.1,61,13.5,61,10,61v39.3
	c0,6.4,5.3,11.7,11.9,11.7h84.2c6.5,0,11.9-5.3,11.9-11.7V53.8C117.2,57.3,116.6,60.8,116,64.4z"/>
<polygon opacity="0.2" enable-background="new    " points="25,61 43,72 39,79 34,78 "/>
<g>
	<path fill="#6B919E" d="M30.6,65.3c1,2.1,2.3,4.5,3.6,6.6c1.5,2.3,3.1,3.4,4.2,3.3c1.4-0.1,3-1.9,4.3-4.8c0.7-1.7,1.4-3.5,2.1-5.3
		c0.4-1,0.7-2,1.1-3c1.1-2.8,2.2-5.5,4-7.5c2.4-2.7,4.6-3,6.1-2.8c1.6,0.2,3.9,1.3,5.8,5.2c1.5,3,2.4,6.4,3.3,9.6l0.5,1.7
		c1,3.5,1.9,6.6,3.2,9.2c1.3,2.7,2.5,3.5,3.2,3.6c0.7,0,2-1.2,3.1-4.3c1.3-3.4,2.2-7.3,3-11c0.4-1.6,0.8-3.3,1.2-4.9
		c0.9-3.4,1.8-7,3.3-10.1c2.1-4.6,4.4-5.4,6.2-5.4c2.4,0.1,4.5,2.1,6,5.9c1.3,3.3,2.1,6.9,2.9,10.4L98,62c0.4,1.8,0.8,3.7,1.2,5.6
		c0.3,1.4,0.9,2.9,0.9,4.3V54.7v-5.9v-3v-5.9c0-3.3-2.7-5.9-6-5.9H63.2c-1-2-2.9-3-5.2-3H34c-3.3,0-6,2.7-6,5.9v14.8v3v6.6
		C29,62.4,29.8,63.7,30.6,65.3z"/>
</g>
<g>
	
		<linearGradient id="SVGID_2_" gradientUnits="userSpaceOnUse" x1="28" y1="57.05" x2="100.0626" y2="57.05" gradientTransform="matrix(1 0 0 -1 0 128)">
		<stop  offset="0" style="stop-color:#E2E2E2"/>
		<stop  offset="1" style="stop-color:#C8C7C7"/>
	</linearGradient>
	<path fill="url(#SVGID_2_)" d="M99,80.9c-1.4-4.3-2.4-8.5-3.3-12.9c-0.4-1.8-0.7-3.9-1.1-5.7L94.2,61c-0.8-3.5-1-6.1-2.2-9
		c-1.1-2.7-2.9-3-3.2-3l0,0c-0.3,0-2,0.5-3.2,3c-1.3,2.8-2.9,6.5-3.7,9.7c-0.4,1.6-0.4,3.2-0.7,4.8c-0.9,3.9-1.7,7.6-3.1,11.3
		c-2.1,5.6-3.8,6.2-5.7,6.3s-4.1-0.2-6.6-5.3c-1.5-3-2.4-6.4-3.3-9.7l-0.3-2c-0.9-3.2-2.7-6.2-4-8.8c-0.9-1.7-2.1-2.9-3-3
		s-2.8,1.3-3.4,1.9c-1.3,1.5-2.1,3.8-3,6.2c-0.4,1-1,1.7-1.4,2.7c-0.7,1.9-1.5,4-2.3,5.8c-2.5,5.7-4.6,6-6.7,6.2
		c-2,0.2-4.1-0.4-7.1-5c-1-1.6-2.7-3.7-3.7-5.4v7.5v3v5.9v3c0,3.3,2.7,5.8,6,5.8h60c3.3,0,6-2.6,6-5.8v-1
		C99.8,84.2,99.5,82.4,99,80.9z"/>
</g>
<g opacity="3.000000e-02">
	<g>
		<path d="M58,31c2.2,0,4.1,1.2,5.2,3H94c3.3,0,6,2.6,6,5.9v5.9v3v5.9v20.7v3v5.9v3c0,3.3-2.7,5.9-6,5.9H34c-3.3,0-6-2.7-6-5.9v-3
			v-5.9v-3V54.6v-3V36.9c0-3.3,2.7-5.9,6-5.9L58,31 M58,29H34c-4.4,0-8,3.5-8,7.9v14.8v3v20.7v3v5.9v3c0,4.4,3.6,7.9,8,7.9h60
			c4.4,0,8-3.5,8-7.9v-3v-5.9v-3V54.6v-5.9v-3v-5.9c0-4.4-3.6-7.9-8-7.9H64.2C62.7,30.1,60.5,29,58,29L58,29z"/>
	</g>
</g>
<polygon opacity="0.3" enable-background="new    " points="25,59 43,70 39,77 34,76 "/>
<polygon opacity="0.3" enable-background="new    " points="57,52 80,67 74,83 68,80 "/>
<polygon opacity="0.3" enable-background="new    " points="91,46 114,61 109,89 103,87 "/>
<path fill="#FFFFFF" d="M105.7,90.9c-1.3,0-3.1-0.6-4.9-3.4c-1.1-1.8-1.9-3.9-2.5-5.9c-1.4-4.3-2.3-8.9-3.2-13.3
	c-0.4-1.8-0.7-3.7-1.1-5.5l-0.1-0.5c-0.8-3.5-1.5-6.8-2.7-9.7c-1.1-2.7-2.1-3.3-2.4-3.3l0,0c-0.3,0-1.2,0.5-2.4,3
	c-1.3,2.8-2.2,6.2-3,9.4c-0.4,1.6-0.8,3.2-1.1,4.8c-0.9,3.9-1.8,7.9-3.2,11.6c-2.1,5.6-4.9,6.9-6.8,7s-4.6-0.9-7.1-5.9
	c-1.5-3-2.5-6.4-3.4-9.7l-0.6-2c-0.9-3.2-1.8-6.3-3.1-8.9c-0.9-1.7-1.8-2.8-2.7-2.9c-0.9-0.1-1.9,0.9-2.5,1.5
	c-1.3,1.5-2.3,3.8-3.2,6.2c-0.4,1-0.7,1.9-1.1,2.9c-0.7,1.9-1.4,3.8-2.2,5.6c-2.5,5.7-5.6,7.1-7.7,7.3c-2,0.2-5-0.6-8-5.2
	c-1.5-2.3-2.8-4.8-3.8-7c-2.3-4.6-4.5-5-6.3-5c-3.9,0.1-7.9,0.1-11.7,0c-1.6,0-3.2,0-4.9-0.1v-4.2c1.6,0,3.3,0,4.9,0.1
	c3.8,0.1,7.7,0.1,11.5,0c4.3-0.2,7.7,2.3,10.1,7.3c1,2.1,2.3,4.5,3.6,6.6c1.5,2.3,3.1,3.4,4.2,3.3c1.4-0.1,3-1.9,4.3-4.8
	c0.7-1.7,1.4-3.5,2.1-5.3c0.4-1,0.7-2,1.1-3c1.1-2.8,2.2-5.5,4-7.5c2.4-2.7,4.6-3,6.1-2.8c1.6,0.2,3.9,1.3,5.8,5.2
	c1.5,3,2.4,6.4,3.3,9.6l0.5,1.7c1,3.5,1.9,6.6,3.2,9.2c1.3,2.7,2.5,3.5,3.2,3.6c0.7,0,2-1.2,3.1-4.3c1.3-3.4,2.2-7.3,3-11
	c0.4-1.6,0.8-3.3,1.2-4.9c0.9-3.4,1.8-7,3.3-10.1c2.1-4.6,4.4-5.4,6.2-5.4c2.4,0.1,4.5,2.1,6,5.9C96,54.4,97.2,58.5,98,62l0,0
	c0.4,1.8,0.8,3.7,1.2,5.6c0.9,4.3,1.8,8.8,3,12.8c0.5,1.7,1.2,3.5,2,4.8c0.8,1.2,1.3,1.5,1.5,1.5l0,0c0.2,0,0.8-0.4,1.5-1.8
	c1.4-2.7,2.1-6.1,2.8-9.1c0.8-3.5,1.4-7.2,2-10.8c0.8-4.8,1.6-9.7,2.9-14.4c0.7-2.7,1.4-5.5,2.7-7.9c0.7-1.2,1.5-2.1,2.3-2.8
	l1.3-0.5l2.8-0.9v4.3l-1.5,0.5c-0.6,0.2-1.1,0.9-1.4,1.5c-1.1,1.9-1.7,4.3-2.3,6.9c-1.2,4.6-2,9.4-2.8,14.1c-0.6,3.6-1.3,7.4-2.1,11
	c-0.7,3.3-1.5,7-3.1,10.1C109.1,90.2,107.1,90.9,105.7,90.9C105.7,90.8,105.7,90.9,105.7,90.9z"/>
<linearGradient id="SVGID_3_" gradientUnits="userSpaceOnUse" x1="40.7297" y1="90.2703" x2="71.1359" y2="59.8641" gradientTransform="matrix(1 0 0 -1 0 128)">
	<stop  offset="6.198181e-03" style="stop-color:#FFFFFF;stop-opacity:0"/>
	<stop  offset="1" style="stop-color:#FFFFFF;stop-opacity:0.2"/>
</linearGradient>
<path fill="url(#SVGID_3_)" d="M22.1,112c-6.7,0-12.1-5.1-12.1-11.4V21.4C10,15.1,15.5,10,22.1,10h83.8c6.7,0,12.1,5.1,12.1,11.4"/>
</svg>
