<?xml version="1.0" encoding="UTF-8" standalone="no"?>
<!-- Created with Inkscape (http://www.inkscape.org/) -->

<svg
   xmlns:dc="http://purl.org/dc/elements/1.1/"
   xmlns:cc="http://creativecommons.org/ns#"
   xmlns:rdf="http://www.w3.org/1999/02/22-rdf-syntax-ns#"
   xmlns:svg="http://www.w3.org/2000/svg"
   xmlns="http://www.w3.org/2000/svg"
   version="1.1"
   width="100%"
   height="100%"
   viewBox="0 0 128 128"
   id="Layer_1"
   xml:space="preserve"><metadata
     id="metadata65"><rdf:RDF><cc:Work
         rdf:about=""><dc:format>image/svg+xml</dc:format><dc:type
           rdf:resource="http://purl.org/dc/dcmitype/StillImage" /><dc:title></dc:title></cc:Work></rdf:RDF></metadata><defs
     id="defs63" /><filter
     x="-20"
     y="-20"
     width="200"
     height="200"
     color-interpolation-filters="sRGB"
     id="blurFilter5"><feGaussianBlur
       in="SourceGraphic"
       stdDeviation="2"
       id="feGaussianBlur4" /></filter><g
     id="g6"
     style="opacity:0.7;filter:url(#blurFilter5)"><ellipse
       cx="64.099998"
       cy="114.4"
       rx="44"
       ry="6.4000001"
       id="ellipse8"
       style="fill:#231f20" /></g><g
     id="g10"
     style="opacity:0.05"><path
       d="m 106.1,13 c 6.5,0 11.9,5.3 11.9,11.9 v 80.2 c 0,6.5 -5.3,11.9 -11.9,11.9 H 21.9 C 15.4,117 10,111.7 10,105.1 V 24.9 C 10,18.3 15.3,13 21.9,13 h 84.2 m 0,-2 H 21.9 C 14.2,11 8,17.2 8,24.9 v 80.2 c 0,7.7 6.2,13.9 13.9,13.9 h 84.2 c 7.7,0 13.9,-6.2 13.9,-13.9 V 24.9 C 120,17.2 113.8,11 106.1,11 l 0,0 z"
       id="path12" /></g><path
     d="M 106.1,117 H 21.9 C 15.4,117 10,111.7 10,105.1 V 24.9 C 10,18.3 15.3,13 21.9,13 h 84.2 c 6.5,0 11.9,5.3 11.9,11.9 v 80.2 c 0,6.6 -5.3,11.9 -11.9,11.9 z"
     id="path14"
     style="fill:#81586c" /><path
     d="m 20.4,57.9 c 4.3,-0.2 7.7,2.3 10.1,7.3 1,2.1 2.3,4.5 3.6,6.6 1.5,2.3 3.1,3.4 4.2,3.3 1.4,-0.1 3,-1.9 4.3,-4.8 0.7,-1.7 1.4,-3.5 2.1,-5.3 0.4,-1 0.7,-2 1.1,-3 1.1,-2.8 2.2,-5.5 4,-7.5 2.4,-2.7 4.6,-3 6.1,-2.8 1.6,0.2 3.9,1.3 5.8,5.2 1.5,3 2.4,6.4 3.3,9.6 l 0.5,1.7 c 1,3.5 1.9,6.6 3.2,9.2 1.3,2.7 2.5,3.5 3.2,3.6 0.7,0 2,-1.2 3.1,-4.3 1.3,-3.4 2.2,-7.3 3,-11 0.4,-1.6 0.8,-3.3 1.2,-4.9 0.9,-3.4 1.8,-7 3.3,-10.1 2.1,-4.6 4.4,-5.4 6.2,-5.4 2.4,0.1 4.5,2.1 6,5.9 1.3,3.3 2.1,6.9 2.9,10.4 L 98,62 c 0.4,1.8 0.8,3.7 1.2,5.6 0.9,4.3 1.8,8.8 3,12.8 0.5,1.7 1.2,3.5 2,4.8 0.8,1.2 1.3,1.5 1.5,1.5 l 0,0 c 0.2,0 0.8,-0.4 1.5,-1.8 1.4,-2.7 2.1,-6.1 2.8,-9.1 0.8,-3.5 1.4,-7.2 2,-10.8 0.8,-4.8 1.6,-9.7 2.9,-14.4 0.7,-2.7 1.4,-5.5 2.7,-7.9 0.1,-0.3 0.3,-0.5 0.4,-0.7 V 22 c 0,-6.5 -5.3,-11.9 -11.9,-11.9 H 21.9 C 15.3,10 10,15.3 10,21.9 V 58 c 3.4,0 7,0.1 10.4,-0.1 z"
     id="path16"
     style="fill:#546d7a" /><linearGradient
     x1="10"
     y1="47.849998"
     x2="118"
     y2="47.849998"
     id="SVGID_1_"
     gradientUnits="userSpaceOnUse"
     gradientTransform="matrix(1,0,0,-1,0,128)"><stop
       id="stop19"
       style="stop-color:#bbbcbd;stop-opacity:1"
       offset="0" /><stop
       id="stop21"
       style="stop-color:#9e9e9f;stop-opacity:1"
       offset="1" /></linearGradient><path
     d="m 116,64.4 c -0.6,3.6 -1.3,7.3 -2.1,10.9 -0.7,3.3 -1.5,6.8 -3.1,10 -1.7,3.3 -3.6,4 -5,4.1 -0.1,0 -0.1,0 -0.2,0 -1.3,0 -3.1,-0.6 -4.9,-3.4 C 99.6,84.3 98.8,82.1 98.2,80.2 96.8,75.9 95.9,71.4 95,67.1 94.6,65.3 94.3,63.4 93.9,61.7 L 93.8,61.2 C 93,57.7 92.3,54.5 91.1,51.6 90,49 89,48.3 88.7,48.3 l 0,0 c -0.3,0 -1.2,0.5 -2.4,3 -1.3,2.7 -2.2,6.1 -3,9.3 -0.4,1.5 -0.8,3.2 -1.1,4.8 -0.9,3.9 -1.8,7.7 -3.2,11.4 -2.1,5.5 -4.9,6.8 -6.8,6.9 -1.9,0.1 -4.6,-0.8 -7.1,-5.8 -1.5,-3 -2.5,-6.3 -3.4,-9.6 l -0.6,-1.9 c -0.9,-3.2 -1.8,-6.2 -3.1,-8.8 -0.9,-1.7 -1.8,-2.7 -2.7,-2.8 -0.9,-0.1 -1.9,0.8 -2.5,1.4 -1.3,1.5 -2.3,3.8 -3.2,6.1 -0.2,0.9 -0.6,1.9 -1,2.8 -0.7,1.8 -1.4,3.8 -2.2,5.5 -2.5,5.6 -5.6,7 -7.7,7.2 -2,0.2 -5,-0.6 -8,-5.1 -1.5,-2.2 -2.8,-4.8 -3.8,-6.9 -2.3,-4.5 -4.5,-5 -6.3,-4.9 C 17.1,61 13.5,61 10,61 v 39.3 c 0,6.4 5.3,11.7 11.9,11.7 h 84.2 c 6.5,0 11.9,-5.3 11.9,-11.7 V 53.8 c -0.8,3.5 -1.4,7 -2,10.6 z"
     id="path23"
     style="fill:url(#SVGID_1_)" /><polygon
     points="39,79 34,78 25,61 43,72 "
     id="polygon25"
     style="opacity:0.2" /><g
     id="g27"><path
       d="m 30.6,65.3 c 1,2.1 2.3,4.5 3.6,6.6 1.5,2.3 3.1,3.4 4.2,3.3 1.4,-0.1 3,-1.9 4.3,-4.8 0.7,-1.7 1.4,-3.5 2.1,-5.3 0.4,-1 0.7,-2 1.1,-3 1.1,-2.8 2.2,-5.5 4,-7.5 2.4,-2.7 4.6,-3 6.1,-2.8 1.6,0.2 3.9,1.3 5.8,5.2 1.5,3 2.4,6.4 3.3,9.6 l 0.5,1.7 c 1,3.5 1.9,6.6 3.2,9.2 1.3,2.7 2.5,3.5 3.2,3.6 0.7,0 2,-1.2 3.1,-4.3 1.3,-3.4 2.2,-7.3 3,-11 0.4,-1.6 0.8,-3.3 1.2,-4.9 0.9,-3.4 1.8,-7 3.3,-10.1 2.1,-4.6 4.4,-5.4 6.2,-5.4 2.4,0.1 4.5,2.1 6,5.9 1.3,3.3 2.1,6.9 2.9,10.4 L 98,62 c 0.4,1.8 0.8,3.7 1.2,5.6 0.3,1.4 0.9,2.9 0.9,4.3 v -17.2 -5.9 -3 -5.9 c 0,-3.3 -2.7,-5.9 -6,-5.9 H 63.2 C 62.2,32 60.3,31 58,31 H 34 c -3.3,0 -6,2.7 -6,5.9 v 14.8 3 6.6 c 1,1.1 1.8,2.4 2.6,4 z"
       id="path29"
       style="fill:#6b919e" /></g><g
     id="g31"><linearGradient
       x1="28"
       y1="57.049999"
       x2="100.0626"
       y2="57.049999"
       id="SVGID_2_"
       gradientUnits="userSpaceOnUse"
       gradientTransform="matrix(1,0,0,-1,0,128)"><stop
         id="stop34"
         style="stop-color:#e2e2e2;stop-opacity:1"
         offset="0" /><stop
         id="stop36"
         style="stop-color:#c8c7c7;stop-opacity:1"
         offset="1" /></linearGradient><path
       d="M 99,80.9 C 97.6,76.6 96.6,72.4 95.7,68 95.3,66.2 95,64.1 94.6,62.3 L 94.2,61 c -0.8,-3.5 -1,-6.1 -2.2,-9 -1.1,-2.7 -2.9,-3 -3.2,-3 l 0,0 c -0.3,0 -2,0.5 -3.2,3 -1.3,2.8 -2.9,6.5 -3.7,9.7 -0.4,1.6 -0.4,3.2 -0.7,4.8 -0.9,3.9 -1.7,7.6 -3.1,11.3 -2.1,5.6 -3.8,6.2 -5.7,6.3 -1.9,0.1 -4.1,-0.2 -6.6,-5.3 -1.5,-3 -2.4,-6.4 -3.3,-9.7 l -0.3,-2 c -0.9,-3.2 -2.7,-6.2 -4,-8.8 -0.9,-1.7 -2.1,-2.9 -3,-3 -0.9,-0.1 -2.8,1.3 -3.4,1.9 -1.3,1.5 -2.1,3.8 -3,6.2 -0.4,1 -1,1.7 -1.4,2.7 -0.7,1.9 -1.5,4 -2.3,5.8 -2.5,5.7 -4.6,6 -6.7,6.2 -2,0.2 -4.1,-0.4 -7.1,-5 -1,-1.6 -2.7,-3.7 -3.7,-5.4 v 7.5 3 5.9 3 c 0,3.3 2.7,5.8 6,5.8 h 60 c 3.3,0 6,-2.6 6,-5.8 v -1 C 99.8,84.2 99.5,82.4 99,80.9 z"
       id="path38"
       style="fill:url(#SVGID_2_)" /></g><g
     id="g40"
     style="opacity:0.02999998"><g
       id="g42"><path
         d="m 58,31 c 2.2,0 4.1,1.2 5.2,3 H 94 c 3.3,0 6,2.6 6,5.9 v 5.9 3 5.9 20.7 3 5.9 3 c 0,3.3 -2.7,5.9 -6,5.9 H 34 c -3.3,0 -6,-2.7 -6,-5.9 v -3 -5.9 -3 -20.8 -3 -14.7 C 28,33.6 30.7,31 34,31 l 24,0 m 0,-2 H 34 c -4.4,0 -8,3.5 -8,7.9 v 14.8 3 20.7 3 5.9 3 c 0,4.4 3.6,7.9 8,7.9 h 60 c 4.4,0 8,-3.5 8,-7.9 v -3 -5.9 -3 -20.8 -5.9 -3 -5.9 c 0,-4.4 -3.6,-7.9 -8,-7.9 H 64.2 C 62.7,30.1 60.5,29 58,29 l 0,0 z"
         id="path44" /></g></g><polygon
     points="39,77 34,76 25,59 43,70 "
     id="polygon46"
     style="opacity:0.3" /><polygon
     points="74,83 68,80 57,52 80,67 "
     id="polygon48"
     style="opacity:0.3" /><polygon
     points="109,89 103,87 91,46 114,61 "
     id="polygon50"
     style="opacity:0.3" /><path
     d="m 105.7,90.9 c -1.3,0 -3.1,-0.6 -4.9,-3.4 C 99.7,85.7 98.9,83.6 98.3,81.6 96.9,77.3 96,72.7 95.1,68.3 94.7,66.5 94.4,64.6 94,62.8 l -0.1,-0.5 c -0.8,-3.5 -1.5,-6.8 -2.7,-9.7 -1.1,-2.7 -2.1,-3.3 -2.4,-3.3 l 0,0 c -0.3,0 -1.2,0.5 -2.4,3 -1.3,2.8 -2.2,6.2 -3,9.4 -0.4,1.6 -0.8,3.2 -1.1,4.8 -0.9,3.9 -1.8,7.9 -3.2,11.6 -2.1,5.6 -4.9,6.9 -6.8,7 -1.9,0.1 -4.6,-0.9 -7.1,-5.9 -1.5,-3 -2.5,-6.4 -3.4,-9.7 l -0.6,-2 c -0.9,-3.2 -1.8,-6.3 -3.1,-8.9 -0.9,-1.7 -1.8,-2.8 -2.7,-2.9 -0.9,-0.1 -1.9,0.9 -2.5,1.5 -1.3,1.5 -2.3,3.8 -3.2,6.2 -0.4,1 -0.7,1.9 -1.1,2.9 -0.7,1.9 -1.4,3.8 -2.2,5.6 -2.5,5.7 -5.6,7.1 -7.7,7.3 -2,0.2 -5,-0.6 -8,-5.2 -1.5,-2.3 -2.8,-4.8 -3.8,-7 -2.3,-4.6 -4.5,-5 -6.3,-5 -3.9,0.1 -7.9,0.1 -11.7,0 C 7.3,62 5.7,62 4,61.9 v -4.2 c 1.6,0 3.3,0 4.9,0.1 3.8,0.1 7.7,0.1 11.5,0 4.3,-0.2 7.7,2.3 10.1,7.3 1,2.1 2.3,4.5 3.6,6.6 1.5,2.3 3.1,3.4 4.2,3.3 1.4,-0.1 3,-1.9 4.3,-4.8 0.7,-1.7 1.4,-3.5 2.1,-5.3 0.4,-1 0.7,-2 1.1,-3 1.1,-2.8 2.2,-5.5 4,-7.5 2.4,-2.7 4.6,-3 6.1,-2.8 1.6,0.2 3.9,1.3 5.8,5.2 1.5,3 2.4,6.4 3.3,9.6 l 0.5,1.7 c 1,3.5 1.9,6.6 3.2,9.2 1.3,2.7 2.5,3.5 3.2,3.6 0.7,0 2,-1.2 3.1,-4.3 1.3,-3.4 2.2,-7.3 3,-11 0.4,-1.6 0.8,-3.3 1.2,-4.9 0.9,-3.4 1.8,-7 3.3,-10.1 2.1,-4.6 4.4,-5.4 6.2,-5.4 2.4,0.1 4.5,2.1 6,5.9 1.3,3.3 2.5,7.4 3.3,10.9 l 0,0 c 0.4,1.8 0.8,3.7 1.2,5.6 0.9,4.3 1.8,8.8 3,12.8 0.5,1.7 1.2,3.5 2,4.8 0.8,1.2 1.3,1.5 1.5,1.5 l 0,0 c 0.2,0 0.8,-0.4 1.5,-1.8 1.4,-2.7 2.1,-6.1 2.8,-9.1 0.8,-3.5 1.4,-7.2 2,-10.8 0.8,-4.8 1.6,-9.7 2.9,-14.4 0.7,-2.7 1.4,-5.5 2.7,-7.9 0.7,-1.2 1.5,-2.1 2.3,-2.8 l 1.3,-0.5 2.8,-0.9 v 4.3 l -1.5,0.5 c -0.6,0.2 -1.1,0.9 -1.4,1.5 -1.1,1.9 -1.7,4.3 -2.3,6.9 -1.2,4.6 -2,9.4 -2.8,14.1 -0.6,3.6 -1.3,7.4 -2.1,11 -0.7,3.3 -1.5,7 -3.1,10.1 -1.7,3.3 -3.7,4 -5.1,4 0,-0.1 0,0 0,0 z"
     id="path52"
     style="fill:#ffffff" /><linearGradient
     x1="40.729698"
     y1="90.270302"
     x2="71.135902"
     y2="59.864101"
     id="SVGID_3_"
     gradientUnits="userSpaceOnUse"
     gradientTransform="matrix(1,0,0,-1,0,128)"><stop
       id="stop55"
       style="stop-color:#ffffff;stop-opacity:0"
       offset="0.00619818" /><stop
       id="stop57"
       style="stop-color:#ffffff;stop-opacity:0.2"
       offset="1" /></linearGradient></svg>