<?xml version="1.0" encoding="utf-8"?>
<!-- Generator: Adobe Illustrator 18.1.1, SVG Export Plug-In . SVG Version: 6.00 Build 0)  -->
<svg version="1.1" id="Layer_1" xmlns="http://www.w3.org/2000/svg" xmlns:xlink="http://www.w3.org/1999/xlink" x="0px" y="0px"
	 viewBox="0 0 150 150" enable-background="new 0 0 150 150" xml:space="preserve">
<g>
	<path fill="#4F6F80" d="M121.1,30.9H73.7c-1.6-2.8-4.5-4.6-7.9-4.6H28.9c-5.1,0-9.2,4.2-9.2,9.3v23.2v4.6v32.5v4.6v9.3v4.6
		c0,5.1,4.1,9.3,9.2,9.3h92.2c5.1,0,9.2-4.2,9.2-9.3v-4.6v-9.3v-4.6V63.4v-9.3v-4.6v-9.3C130.3,35.1,126.2,30.9,121.1,30.9z"/>
	<path fill="#87A6B0" d="M73.5,44.6c0.2,6.3-4.7,11.3-10.9,11.3H34.1H17.1c-6.3,0-10.3,4.9-9.1,10.6l8,37.4l2.6,12.2
		c0.9,4.3,5.8,7.7,11,7.7h94c5.2,0,9.9-3.4,10.4-7.7l1.6-12.2l6.5-48c0.8-6.1-3.7-11.3-10.2-11.3H73.5z"/>
</g>
</svg>
