<?xml version="1.0" encoding="utf-8"?>
<!-- Generator: Adobe Illustrator 18.1.1, SVG Export Plug-In . SVG Version: 6.00 Build 0)  -->
<svg version="1.1" id="Layer_1" xmlns="http://www.w3.org/2000/svg" xmlns:xlink="http://www.w3.org/1999/xlink" x="0px" y="0px" preserveAspectRatio="none" viewBox="-513 0 663 150" enable-background="new -513 0 663 150" xml:space="preserve">
<path fill="#39B54A" d="M149.9,85.4c-0.5-1.9-0.4-3.9-0.5-5.8c-0.2-1.9-0.4-3.9-0.5-5.8l-0.3-2.6c-0.8-7.9-1.5-16.1-2.8-24.1
	c-0.5-3-1.1-5.4-2-7.5c-0.3-0.8-1-2.5-3.1-2.6c-2.4-0.1-3.3,1.7-3.6,2.3c-0.6,1.2-1,2.5-1.3,3.8c-1.6,6.2-2.2,12.5-2.8,18.7
	c-0.1,1-0.2,2-0.3,3c-0.4,3.8-0.8,7.7-1.1,11.5c-0.5,5.8-1.1,11.9-1.9,17.8l-0.1,0.2c-0.6,4.7-1.2,9.6-2.7,14.1
	c-0.2,0.5-0.3,0.9-0.5,1.3c-0.6-1-1-2.3-1.3-3.5c-1.8-7.2-2.6-14.7-3.3-22.1c-0.1-1.3-0.3-2.5-0.4-3.8c-0.3-2.4-0.5-4.7-0.7-7
	c-0.6-6.4-1.3-13-2.3-19.5l-0.1-0.5c-0.5-3.3-1-6.6-2.4-9.9c-0.3-0.8-1.2-2.7-3.4-2.8c-2.1-0.1-3.1,1.7-3.5,2.6
	c-1.1,2.1-1.6,4.4-2,6.7c-1.5,8.1-2.4,16.5-3.2,24.6c-0.4,3.6-0.8,7.4-1.2,11l-0.2,1.2c-0.6,5.1-1.2,10.5-2.5,15.5l-0.1,0.2
	c-0.4,1.6-0.8,3-1.6,4.2c-0.8-1.2-1.2-2.6-1.6-3.9c-1.3-5.1-2-10.5-2.6-15.1c-0.4-3.3-0.8-6.8-1.1-10.1c-0.7-6.4-1.4-13-2.4-19.5
	c-0.5-3.4-1.1-7.2-2.6-10.8c-0.4-1-1.3-3.2-3.7-3.2h-0.1c-2.1,0.1-3,1.7-3.6,2.8l-0.1,0.2c-0.1,0.2-0.2,0.4-0.2,0.6
	c0,0.1,0,0.1-0.1,0.1c-1.5,3.6-2.1,7.5-2.6,10.8c-0.8,5.6-1.5,11.4-2.2,16.9c-0.6,5.1-1.3,10.3-2,15.5c-0.5,3.9-1.2,8-2.8,11.6
	c-0.1,0.2-0.3,0.6-0.4,0.8c-0.1-0.1-0.3-0.4-0.3-0.5c-0.1-0.1-0.2-0.2-0.2-0.3c-0.1-0.2-0.2-0.4-0.3-0.6l-0.1-0.2
	c-1.1-2.7-1.7-5.5-2.1-8.4c-1-5.7-1.7-11.5-2.4-17.2c-0.6-4.7-1.2-9.6-2-14.4c-0.6-3.8-1.2-7.5-2.6-10.9c-0.4-0.9-1.2-3.1-3.8-3.3
	c-2.6-0.1-3.6,2-4,2.9c-0.8,1.6-1.2,3.3-1.6,4.8c-1.4,6-2.3,12.2-3,18.2c-0.3,2.7-0.7,5.4-1.1,8.1c-0.2,0.9-0.3,1.8-0.4,2.7
	c-0.6,4.4-1.3,9-2.7,13.3c-0.4,1.2-0.8,2-1.4,2.7c-0.6-0.6-1-1.5-1.3-2.4c-1.8-5-2.5-10.3-3.3-15.5c-0.2-1.1-0.3-2.3-0.5-3.4
	c-0.2-1.6-0.5-3.2-0.7-4.7c-0.8-5.3-1.6-10.7-2.8-16c-0.5-1.9-1-3.7-2.1-5.4c-0.9-1.2-2-1.8-3.2-1.8c0,0,0,0-0.1,0
	c-1.2,0-2.4,0.6-3.3,1.8C24.4,53.3,24,54,23.6,55c-0.9,2.1-1.6,4.6-2.1,7.7c-0.6,3.8-1.3,7.6-1.9,11.4c-0.8,4.4-1.5,9-2.3,13.5
	c-0.5,2.8-1.1,5.7-2.5,8.3C14.4,96.7,14,97,14,97c-0.1,0-0.5-0.3-0.9-1.1c-0.6-1.2-1.1-2.5-1.6-4.2c-1.2-4.5-2-9.2-2.7-13.8
	c-0.3-1.6-0.5-3.1-0.8-4.7c-0.1-0.6-0.2-1.2-0.3-1.9C6.9,67,6.2,62.5,4.4,58.2C4,57,2.9,54.5,0.1,54.3c-2.5-0.2-3.6,1.8-4.4,3.1
	l-0.2,0.4c-0.2,0.2-0.2,0.4-0.3,0.6l-0.1,0.1c-1.2,3.1-2,6.4-2.5,8.8s-0.9,4.9-1.3,7.3c-0.8,4.7-1.7,9.6-3,14.3
	c-0.5,1.8-1,3.1-1.8,4.1c-0.3,0.5-0.5,0.6-0.6,0.8c-0.1-0.1-0.3-0.2-0.6-0.6c-0.9-0.9-1.3-2.2-1.8-3.5c-1.4-4.1-2.2-8.5-3.1-12.8
	c-0.4-2-0.8-4.1-1.2-6.1c-0.1-0.4-0.2-0.8-0.3-1.2c-0.7-3.2-1.4-6.6-3.3-9.6c-0.9-1.4-2.1-2.3-3.5-2.4c-1.3-0.1-2.7,0.5-3.9,1.8
	c-1.3,1.6-2,3.4-2.5,4.8c-1.2,3.6-2,7.5-2.8,11.2c-0.5,2.6-1.1,5.2-1.8,7.7l-0.1,0.2c-0.6,2.5-1.3,4.8-2.6,6.6
	c-0.5,0.6-0.7,0.7-0.7,0.7l0,0c0,0-0.3,0-0.9-0.6c-0.8-0.8-1.3-1.7-1.8-3c-1.2-3.1-2-6.5-2.8-9.7c-0.4-1.7-0.8-3.5-1.3-5.2
	c-0.1-0.4-0.2-0.7-0.3-1.1c-0.7-2.5-1.3-5.1-2.9-7.4c-1-1.5-2.5-2.4-4.1-2.4c-1.6-0.1-3.1,0.8-4.2,2.1c-0.5,0.7-1,1.4-1.4,2.3
	c-1.3,2.7-2.1,5.6-2.8,8.5c-0.1,0.4-0.2,0.9-0.3,1.3c-0.1,0.5-0.3,1-0.4,1.4c-0.8,3.1-1.6,6.1-3.1,8.8c-0.6,1.1-1.2,1.7-1.8,1.8
	c-0.5,0.1-1.2-0.5-1.9-1.4c-0.2-0.2-0.3-0.5-0.5-0.9l-0.1-0.3c-1.3-2.6-2.2-5.3-3.1-8.2c-0.3-1-0.6-1.9-0.9-2.9
	c-0.7-2.1-1.4-4.2-2.6-6.1c-1.2-1.8-2.7-2.9-4.5-3.1c-1.7-0.2-3.4,0.6-4.8,2.1c-2.1,2.3-3.1,5.1-4.1,7.9l-0.5,1.3
	c-0.9,2.5-1.7,4.8-3.1,6.8c-0.4,0.6-1.1,1.3-1.9,1.4c-0.9,0.1-1.6-0.5-2.1-1c-0.9-0.9-1.6-1.9-2.1-3.1c-0.9-2-2-4.3-3.1-6.5
	l-0.1-0.2c-0.6-1.2-1.3-2.6-2.5-3.6c-1.4-1.2-3.2-1.7-5-1.5c-2.1,0.3-4,1.4-5.5,3.4c-1,1.3-1.7,2.7-2.5,4.1c-0.5,1-1.1,1.9-1.7,2.8
	c-1,1.6-2.1,2.5-3.2,2.6c-1.2,0.2-2.6-0.5-4.1-1.9c-0.9-0.8-1.6-1.8-2.4-2.8c-0.2-0.2-0.3-0.5-0.5-0.7c-2-2.7-4.4-4-7.4-3.9
	c-3.4,0.1-30.4,0.1-33.9,0.1c-1.4,0-3.2,0-4.7,0h-1.7v3h1.7c1.4,0,2.9,0,4.3,0c3.3,0,30.2,0.1,33.5,0c2.1-0.1,3.9,0.8,5.3,2.6
	l0.2,0.3c1.1,1.3,2.1,2.8,3.4,4c1.7,1.7,3.9,2.6,5.9,2.5c2-0.1,4-1.2,5.5-3.1c0.6-0.8,1.1-1.6,1.6-2.3c0.4-0.6,0.7-1.2,1-1.8
	c0.7-1.3,1.4-2.5,2.2-3.6c1-1.3,2.3-2,3.5-2c1.2,0.1,2.4,0.8,3.3,2.1c1,1.4,1.7,3.1,2.4,4.8l0.2,0.5c0.9,2.1,1.9,4.6,3.8,6.4
	c1.8,1.9,3.6,2.2,4.7,2.1c1.1-0.1,2.8-0.6,4.4-2.7c0.8-1,1.3-2.1,1.9-3.6c1-2.6,2-5.3,3-7.9c0.6-1.6,1.3-2.9,2.3-4
	c0.8-0.9,1.5-1.4,2.3-1.3c0.7,0.1,1.4,0.6,2.1,1.6c0.5,0.8,0.9,1.4,1.2,2.3c0.9,2,1.5,4.1,2.1,6.2c0.3,1.1,0.7,2.3,1.1,3.4
	c0.8,2.4,1.6,4.6,3.1,6.6c1.7,2.4,3.4,2.8,4.6,2.8c1.2-0.1,2.8-0.6,4.3-3.2c1.4-2.3,2.1-4.8,2.8-7.3v-0.1c0.3-1.2,0.6-2.3,0.9-3.5
	c0.6-2.6,1.3-5.2,2.3-7.7l0.1-0.2c0.6-1.5,1.2-2.9,2.3-4c0.3-0.3,0.8-0.6,1.3-0.6c0.5,0.1,0.9,0.5,1.1,0.8c0.6,0.9,1.2,2,1.7,3.4
	c1.1,3.1,1.9,6.3,2.6,9.5c0.3,1.1,0.5,2.3,0.8,3.4l0.1,0.3c0.8,3.2,1.7,6.5,3.5,9.5c1.4,2.3,3.1,2.7,4.1,2.6c1.1-0.1,2.6-0.6,4-2.9
	c1-1.8,1.7-3.6,2.1-5.5c0.4-1.7,0.8-3.4,1.2-5.1c0.9-3.7,1.7-7.6,2.6-11.4c0.5-2.3,1.2-4.6,2.5-6.6c0.6-1.1,1.2-1.4,1.6-1.4
	s0.9,0.4,1.5,1.6c0.9,1.7,1.5,3.5,2,5.8c0.6,2.9,1.3,6,1.9,8.9c0.7,3.3,1.4,6.8,2.2,10.2c0.5,2.5,1.3,5,2.8,7.3
	c1.3,1.9,2.7,2.3,3.7,2.3c0.9-0.1,2.3-0.5,3.5-2.5c1.3-2.1,1.9-4.5,2.4-6.4c1-4,1.7-8.1,2.4-12.1c0.5-2.9,1.1-6,1.7-9l0.1-0.3
	c0.6-3.1,1.3-6,2.8-8.4c0.4-0.7,0.9-1.1,1.1-1.1l0,0c0.3,0,0.7,0.4,1.1,1.1c0.9,1.6,1.4,3.4,1.9,5.5c1,4.1,1.7,8.5,2.4,12.6
	c0.4,2.7,0.9,5.6,1.4,8.4l0.2,1.2c0.8,3.9,1.5,7.8,3.4,11.5c0.4,0.7,1.4,2.7,3.8,2.6c2-0.2,2.9-1.9,3.4-2.7c1.6-3.1,2.2-6.4,2.8-9.7
	l0.2-0.8c0.8-3.8,1.3-7.6,1.9-11.4c0.6-4.3,1.3-8.8,2.3-13.2l0.1-0.2c0.6-2.8,1.1-5.4,2.6-7.7c0.4-0.6,0.7-0.8,0.8-0.8l0,0
	c0.1,0,0.4,0.2,0.8,0.8c0.5,0.9,0.9,1.8,1.1,2.7c1.7,5.8,2.6,12,3.4,17.9c0.3,2.3,0.6,4.6,1,6.8c0.1,0.8,0.2,1.5,0.3,2.3
	c0.8,4.8,1.5,9.8,3.1,14.5c0.3,1,0.8,2.2,1.8,3.3c0.9,1,1.8,1.5,2.8,1.4c1-0.1,1.9-0.6,2.6-1.7c0.8-1.2,1.4-2.6,1.9-4.3
	c1.3-5,2.1-10.3,2.8-14.8c0.3-2.3,0.6-4.7,0.9-6.9c0.8-5.6,1.5-11.4,2.6-17.1c0.5-2.4,1.1-5,2.3-7.3c0.4-0.9,0.7-0.9,0.9-0.9
	c0.1,0.1,0.3,0.3,0.5,0.8c0.5,1,0.9,2,1.2,3c1.7,6.5,2.5,13.5,3.3,20.1c0.2,2,0.5,4,0.8,6l0.3,2.2c0.8,5.8,1.6,11.8,3.1,17.7
	c0.4,1.6,1,3.4,2,4.8c0.8,1.1,1.7,1.7,2.7,1.7l0,0c1,0,1.9-0.6,2.7-1.7c0.7-1,1.1-2.1,1.4-3.1c1.6-5,2.3-10.3,2.9-15.4l0.2-1.1
	c0.4-3.4,0.9-6.9,1.2-10.2c0.8-6.3,1.5-12.8,2.6-19c0.5-3.1,1.1-5.9,2.4-8.4c0.4-0.8,0.5-0.8,0.6-0.7c0.1,0,0.3,0,0.6,0.8
	c0.6,1.5,1.2,3.1,1.6,4.9c1.5,7.3,2.4,14.8,3.2,22.2c0.3,2.7,0.6,5.5,0.9,8.3l0.3,2.1c0.8,6.1,1.5,12.3,3,18.4
	c0.4,1.8,0.9,3.3,2,4.7c1,1.3,2.1,1.5,2.8,1.4c0.7-0.1,1.7-0.4,2.5-1.9c0.8-1.4,1.3-2.9,1.8-4.8c1.7-7.1,2.4-14.3,3.2-21.3l0.3-2.6
	c0.2-1.8,0.4-3.7,0.6-5.5c0.8-7.1,1.5-14.4,2.7-21.4l0.1-0.2c0.5-2.8,1-5.5,2.3-7.9c0.2-0.3,0.3-0.4,0.4-0.5
	c0.1,0.1,0.2,0.3,0.3,0.5c0.8,1.5,1.2,3.2,1.6,4.6c1.4,6.5,2.1,13.4,2.8,20c0.1,0.9,0.2,1.8,0.3,2.7c0.3,2.5,0.5,4.9,0.8,7.3
	c0.7,7,1.4,14.2,2.5,21.2l0.2,0.9c0.5,3.2,1,6.6,2.5,9.6c0.4,1,1.2,2.7,3.2,2.7l0,0c2,0,2.7-1.8,3.1-2.7l0.1-0.3
	c1.2-2.9,1.8-6.1,2.2-8.8c1.2-7.6,2-15.3,2.7-22.7c0.2-1.8,0.3-3.6,0.5-5.4c0.1-1.1,0.2-2.3,0.3-3.4c0.6-6.6,1.3-13.4,2.4-20
	l0.1-0.5c0.5-3.1,1-6.1,2.4-8.7c0.1-0.2,0.2-0.3,0.3-0.4c0.1,0.1,0.2,0.2,0.3,0.4c0.9,1.6,1.2,3.4,1.6,5.2
	c1.8,9.4,2.6,19.2,3.5,28.7c0.4,4.1,0.8,8.3,1.2,12.5l0.3,2.7c0.6,6.3,1.1,12.9,2.7,19.2V85.4H149.9z"/>
<path fill="#FFFFFF" d="M-154.7,71.9c-5.4,0.1-342.8,0.1-348.3,0.1c-2.3,0-5,0-7.4,0h-2.6v3h2.6c2.2,0,4.6,0,6.8,0
	c5.2,0,343.6,0.1,348.9,0"/>
</svg>
